<svg width="308" height="176" viewBox="0 0 308 176" fill="none" xmlns="http://www.w3.org/2000/svg">
<g clip-path="url(#clip0_11_94)">
<path d="M27.5053 112.99L29.4277 116.414C31.3785 119.86 35.2234 126.708 39.0966 130.11C42.9698 133.512 46.8147 133.426 50.6879 129.677C54.5611 125.928 58.406 118.473 62.2792 116.414C66.1524 114.356 69.9974 117.693 73.8706 122.742C77.7438 127.791 81.5887 134.596 85.4053 137.305C89.222 140.013 93.0104 138.626 96.827 138.778C100.644 138.93 104.489 140.577 108.362 138.951C112.235 137.326 116.08 132.429 119.953 131.345C123.826 130.262 127.671 132.992 131.544 134.379C135.418 135.744 139.263 135.744 143.136 134.162C147.009 132.559 150.854 129.395 154.727 126.534C158.6 123.674 162.445 121.16 166.318 121.16C170.192 121.16 174.037 123.674 177.91 126.968C181.783 130.262 185.628 134.292 189.501 134.076C193.374 133.859 197.219 129.395 201.092 129.937C204.966 130.478 208.811 136.026 212.627 134.552C216.444 133.079 220.232 124.541 224.049 120.033C227.866 115.526 231.71 115.006 235.584 119.817C239.457 124.627 243.302 134.726 247.175 137.218C251.048 139.71 254.893 134.596 258.766 133.404C262.639 132.212 266.484 134.942 270.358 132.927C274.231 130.912 278.076 124.107 280.026 120.727L281.949 117.325V153.514H280.026C278.076 153.514 274.231 153.514 270.358 153.514C266.484 153.514 262.639 153.514 258.766 153.514C254.893 153.514 251.048 153.514 247.175 153.514C243.302 153.514 239.457 153.514 235.584 153.514C231.71 153.514 227.866 153.514 224.049 153.514C220.232 153.514 216.444 153.514 212.627 153.514C208.811 153.514 204.966 153.514 201.092 153.514C197.219 153.514 193.374 153.514 189.501 153.514C185.628 153.514 181.783 153.514 177.91 153.514C174.037 153.514 170.192 153.514 166.318 153.514C162.445 153.514 158.6 153.514 154.727 153.514C150.854 153.514 147.009 153.514 143.136 153.514C139.263 153.514 135.418 153.514 131.544 153.514C127.671 153.514 123.826 153.514 119.953 153.514C116.08 153.514 112.235 153.514 108.362 153.514C104.489 153.514 100.644 153.514 96.827 153.514C93.0104 153.514 89.222 153.514 85.4053 153.514C81.5887 153.514 77.7438 153.514 73.8706 153.514C69.9974 153.514 66.1524 153.514 62.2792 153.514C58.406 153.514 54.5611 153.514 50.6879 153.514C46.8147 153.514 42.9698 153.514 39.0966 153.514C35.2234 153.514 31.3785 153.514 29.4277 153.514H27.5053V112.99Z" fill="#CDBCA6"/>
<path d="M80.373 -25.4829L75.9061 -24.0094C71.411 -22.5141 62.4771 -19.5669 58.0385 -16.5981C53.5999 -13.6293 53.713 -10.6821 58.604 -7.71327C63.4949 -4.74444 73.2203 -1.79727 75.9061 1.17156C78.5919 4.1404 74.2381 7.08756 67.6508 10.0564C61.0636 13.0252 52.1863 15.9724 48.6524 18.8979C45.1184 21.8234 46.9278 24.7272 46.7299 27.6527C46.532 30.5782 44.3834 33.5254 46.5037 36.4942C48.6241 39.463 55.0135 42.4102 56.427 45.379C57.8406 48.3479 54.2784 51.295 52.469 54.2639C50.6879 57.2327 50.6879 60.1799 52.7517 63.1487C54.8438 66.1175 58.9715 69.0647 62.7033 72.0335C66.4352 75.0024 69.7147 77.9495 69.7147 80.9184C69.7147 83.8872 66.4352 86.8344 62.1379 89.8032C57.8406 92.772 52.5821 95.7192 52.8648 98.688C53.1476 101.657 58.9715 104.604 58.2647 107.573C57.5579 110.542 50.3204 113.489 52.2429 116.414C54.1653 119.34 65.3043 122.244 71.1848 125.169C77.0652 128.095 77.7438 131.042 71.4675 134.011C65.1912 136.979 52.0167 139.927 48.7655 142.895C45.5142 145.864 52.1863 148.811 53.7412 151.78C55.2962 154.749 51.734 157.696 54.3632 160.665C56.9925 163.634 65.8697 166.581 70.2801 168.076L74.7187 169.55H27.5053V168.076C27.5053 166.581 27.5053 163.634 27.5053 160.665C27.5053 157.696 27.5053 154.749 27.5053 151.78C27.5053 148.811 27.5053 145.864 27.5053 142.895C27.5053 139.927 27.5053 136.979 27.5053 134.011C27.5053 131.042 27.5053 128.095 27.5053 125.169C27.5053 122.244 27.5053 119.34 27.5053 116.414C27.5053 113.489 27.5053 110.542 27.5053 107.573C27.5053 104.604 27.5053 101.657 27.5053 98.688C27.5053 95.7192 27.5053 92.772 27.5053 89.8032C27.5053 86.8344 27.5053 83.8872 27.5053 80.9184C27.5053 77.9495 27.5053 75.0024 27.5053 72.0335C27.5053 69.0647 27.5053 66.1175 27.5053 63.1487C27.5053 60.1799 27.5053 57.2327 27.5053 54.2639C27.5053 51.295 27.5053 48.3479 27.5053 45.379C27.5053 42.4102 27.5053 39.463 27.5053 36.4942C27.5053 33.5254 27.5053 30.5782 27.5053 27.6527C27.5053 24.7272 27.5053 21.8234 27.5053 18.8979C27.5053 15.9724 27.5053 13.0252 27.5053 10.0564C27.5053 7.08756 27.5053 4.1404 27.5053 1.17156C27.5053 -1.79727 27.5053 -4.74444 27.5053 -7.71327C27.5053 -10.6821 27.5053 -13.6293 27.5053 -16.5981C27.5053 -19.5669 27.5053 -22.5141 27.5053 -24.0094V-25.4829H80.373Z" fill="#CDBCA6"/>
<path d="M298.912 63.7988L296.989 60.3749C295.039 56.9293 291.194 50.0815 287.32 46.6793C283.447 43.277 279.602 43.3637 275.729 47.1127C271.856 50.8616 268.011 58.3162 264.138 60.3749C260.265 62.4336 256.42 59.0964 252.546 54.0472C248.673 48.998 244.828 42.1935 241.012 39.4847C237.195 36.7759 233.407 38.1628 229.59 38.0111C225.773 37.8594 221.928 36.2125 218.055 37.8378C214.182 39.4631 210.337 44.3605 206.464 45.4441C202.591 46.5276 198.746 43.7971 194.873 42.4102C190.999 41.045 187.154 41.045 183.281 42.6269C179.408 44.2305 175.563 47.3944 171.69 50.2549C167.817 53.1154 163.972 55.6291 160.099 55.6291C156.225 55.6291 152.38 53.1154 148.507 49.8215C144.634 46.5276 140.789 42.4969 136.916 42.7136C133.043 42.9303 129.198 47.3944 125.325 46.8526C121.451 46.3109 117.607 40.7633 113.79 42.2369C109.973 43.7104 106.185 52.2485 102.368 56.756C98.5515 61.2634 94.7066 61.7835 90.8334 56.9727C86.9602 52.1619 83.1153 42.0635 79.2421 39.5714C75.3689 37.0793 71.524 42.1935 67.6508 43.3854C63.7776 44.5772 59.9326 41.8468 56.0594 43.8621C52.1862 45.8775 48.3413 52.6819 46.3906 56.0625L44.4681 59.4648V23.2753H46.3906C48.3413 23.2753 52.1862 23.2753 56.0594 23.2753C59.9326 23.2753 63.7776 23.2753 67.6508 23.2753C71.524 23.2753 75.3689 23.2753 79.2421 23.2753C83.1153 23.2753 86.9602 23.2753 90.8334 23.2753C94.7066 23.2753 98.5515 23.2753 102.368 23.2753C106.185 23.2753 109.973 23.2753 113.79 23.2753C117.607 23.2753 121.451 23.2753 125.325 23.2753C129.198 23.2753 133.043 23.2753 136.916 23.2753C140.789 23.2753 144.634 23.2753 148.507 23.2753C152.38 23.2753 156.225 23.2753 160.099 23.2753C163.972 23.2753 167.817 23.2753 171.69 23.2753C175.563 23.2753 179.408 23.2753 183.281 23.2753C187.154 23.2753 190.999 23.2753 194.873 23.2753C198.746 23.2753 202.591 23.2753 206.464 23.2753C210.337 23.2753 214.182 23.2753 218.055 23.2753C221.928 23.2753 225.773 23.2753 229.59 23.2753C233.407 23.2753 237.195 23.2753 241.012 23.2753C244.828 23.2753 248.673 23.2753 252.546 23.2753C256.42 23.2753 260.265 23.2753 264.138 23.2753C268.011 23.2753 271.856 23.2753 275.729 23.2753C279.602 23.2753 283.447 23.2753 287.32 23.2753C291.194 23.2753 295.039 23.2753 296.989 23.2753H298.912V63.7988Z" fill="#CDBCA6"/>
<path d="M229.193 224.159L228.967 222.686C228.713 221.19 228.26 218.243 231.823 215.274C235.413 212.306 243.046 209.358 246.354 206.39C249.634 203.421 248.616 200.474 249.04 197.505C249.464 194.536 251.33 191.589 250.482 188.62C249.634 185.651 246.071 182.704 245.732 179.778C245.393 176.853 248.333 173.949 248.842 171.024C249.351 168.098 247.485 165.151 247.004 162.182C246.524 159.213 247.485 156.266 251.16 153.297C254.836 150.328 261.225 147.381 263.063 144.412C264.9 141.444 262.186 138.496 259.811 135.528C257.465 132.559 255.486 129.612 256.334 126.643C257.182 123.674 260.857 120.727 257.804 117.758C254.723 114.789 244.941 111.842 244.827 108.873C244.743 105.904 254.355 102.957 254.92 99.9883C255.486 97.0194 247.004 94.0723 244.743 91.1034C242.481 88.1346 246.439 85.1874 248.079 82.2619C249.747 79.3364 249.068 76.4326 250.34 73.5071C251.613 70.5816 254.836 67.6345 251.895 64.6656C248.983 61.6968 239.937 58.7496 238.721 55.7808C237.477 52.812 244.092 49.8648 243.555 46.896C243.046 43.9271 235.413 40.98 236.318 38.0111C237.194 35.0423 246.637 32.0951 251.33 30.5999L256.051 29.1263H282.061V30.5999C282.061 32.0951 282.061 35.0423 282.061 38.0111C282.061 40.98 282.061 43.9271 282.061 46.896C282.061 49.8648 282.061 52.812 282.061 55.7808C282.061 58.7496 282.061 61.6968 282.061 64.6656C282.061 67.6345 282.061 70.5816 282.061 73.5071C282.061 76.4326 282.061 79.3364 282.061 82.2619C282.061 85.1874 282.061 88.1346 282.061 91.1034C282.061 94.0723 282.061 97.0194 282.061 99.9883C282.061 102.957 282.061 105.904 282.061 108.873C282.061 111.842 282.061 114.789 282.061 117.758C282.061 120.727 282.061 123.674 282.061 126.643C282.061 129.612 282.061 132.559 282.061 135.528C282.061 138.496 282.061 141.444 282.061 144.412C282.061 147.381 282.061 150.328 282.061 153.297C282.061 156.266 282.061 159.213 282.061 162.182C282.061 165.151 282.061 168.098 282.061 171.024C282.061 173.949 282.061 176.853 282.061 179.778C282.061 182.704 282.061 185.651 282.061 188.62C282.061 191.589 282.061 194.536 282.061 197.505C282.061 200.474 282.061 203.421 282.061 206.39C282.061 209.358 282.061 212.306 282.061 215.274C282.061 218.243 282.061 221.19 282.061 222.686V224.159H229.193Z" fill="#CDBCA6"/>
<path d="M27.5053 142.913L29.4277 140.24C31.3785 137.547 35.2234 132.201 39.0966 132.563C42.9698 132.925 46.8147 139.034 50.6879 140.039C54.5611 141.044 58.406 136.944 62.2792 137.024C66.1524 137.085 69.9974 141.305 73.8706 142.551C77.7438 143.777 81.5887 142.049 85.4053 141.164C89.222 140.3 93.0104 140.3 96.827 139.657C100.644 139.034 104.489 137.748 108.362 138.592C112.235 139.436 116.08 142.37 119.953 142.873C123.826 143.375 127.671 141.446 131.544 138.934C135.418 136.421 139.263 133.326 143.136 134.733C147.009 136.14 150.854 142.049 154.727 142.873C158.6 143.717 162.445 139.496 166.318 135.939C170.192 132.402 174.037 129.508 177.91 129.91C181.783 130.312 185.628 134.01 189.501 133.929C193.374 133.869 197.219 130.051 201.092 130.915C204.966 131.799 208.811 137.346 212.627 141.245C216.444 145.124 220.232 147.334 224.049 146.47C227.866 145.586 231.71 141.647 235.584 138.552C239.457 135.477 243.302 133.266 247.175 132.764C251.048 132.261 254.893 133.467 258.766 132.703C262.639 131.92 266.484 129.186 270.358 127.9C274.231 126.634 278.076 126.835 280.026 126.935L281.949 127.036V156.981H280.026C278.076 156.981 274.231 156.981 270.358 156.981C266.484 156.981 262.639 156.981 258.766 156.981C254.893 156.981 251.048 156.981 247.175 156.981C243.302 156.981 239.457 156.981 235.584 156.981C231.71 156.981 227.866 156.981 224.049 156.981C220.232 156.981 216.444 156.981 212.627 156.981C208.811 156.981 204.966 156.981 201.092 156.981C197.219 156.981 193.374 156.981 189.501 156.981C185.628 156.981 181.783 156.981 177.91 156.981C174.037 156.981 170.192 156.981 166.318 156.981C162.445 156.981 158.6 156.981 154.727 156.981C150.854 156.981 147.009 156.981 143.136 156.981C139.263 156.981 135.418 156.981 131.544 156.981C127.671 156.981 123.826 156.981 119.953 156.981C116.08 156.981 112.235 156.981 108.362 156.981C104.489 156.981 100.644 156.981 96.827 156.981C93.0104 156.981 89.222 156.981 85.4053 156.981C81.5887 156.981 77.7438 156.981 73.8706 156.981C69.9974 156.981 66.1524 156.981 62.2792 156.981C58.406 156.981 54.5611 156.981 50.6879 156.981C46.8147 156.981 42.9698 156.981 39.0966 156.981C35.2234 156.981 31.3785 156.981 29.4277 156.981H27.5053V142.913Z" fill="#AF9F8B"/>
<path d="M51.5133 23.2753L55.0005 24.7489C58.5139 26.2441 65.4883 29.1913 65.0163 32.1601C64.5444 35.129 56.5736 38.0761 55.2627 41.045C53.9517 44.0138 59.3005 46.961 59.1956 49.9298C59.1169 52.8986 53.6108 55.8458 51.9852 58.8146C50.3858 61.7835 52.6407 64.7306 53.7944 67.6561C54.9218 70.5816 54.9218 73.4854 55.7608 76.4109C56.5736 79.3364 58.2517 82.2836 57.1505 85.2524C56.0492 88.2213 52.2212 91.1684 51.5657 94.1373C50.9102 97.1061 53.4273 100.053 56.7047 103.022C59.9822 105.991 64.02 108.938 62.1846 111.907C60.3493 114.876 52.6407 117.823 51.5657 120.792C50.4645 123.761 55.9706 126.708 60.6115 129.677C65.2261 132.645 69.0017 135.593 68.4773 138.561C67.9529 141.53 63.1285 144.477 63.2334 147.446C63.3121 150.415 68.2938 153.362 67.1663 156.331C66.0127 159.3 58.7761 162.247 53.6895 165.173C48.6291 168.098 45.745 171.002 46.8724 173.927C48.0261 176.853 53.1651 179.8 57.2029 182.769C61.2145 185.738 64.0987 188.685 64.7541 191.654C65.4096 194.623 63.8365 197.57 64.8328 200.539C65.8554 203.507 69.4212 206.455 71.0993 209.423C72.7511 212.392 72.4889 215.339 72.3578 216.835L72.2267 218.308H33.1596V216.835C33.1596 215.339 33.1596 212.392 33.1596 209.423C33.1596 206.455 33.1596 203.507 33.1596 200.539C33.1596 197.57 33.1596 194.623 33.1596 191.654C33.1596 188.685 33.1596 185.738 33.1596 182.769C33.1596 179.8 33.1596 176.853 33.1596 173.927C33.1596 171.002 33.1596 168.098 33.1596 165.173C33.1596 162.247 33.1596 159.3 33.1596 156.331C33.1596 153.362 33.1596 150.415 33.1596 147.446C33.1596 144.477 33.1596 141.53 33.1596 138.561C33.1596 135.593 33.1596 132.645 33.1596 129.677C33.1596 126.708 33.1596 123.761 33.1596 120.792C33.1596 117.823 33.1596 114.876 33.1596 111.907C33.1596 108.938 33.1596 105.991 33.1596 103.022C33.1596 100.053 33.1596 97.1061 33.1596 94.1373C33.1596 91.1684 33.1596 88.2213 33.1596 85.2524C33.1596 82.2836 33.1596 79.3364 33.1596 76.4109C33.1596 73.4854 33.1596 70.5816 33.1596 67.6561C33.1596 64.7306 33.1596 61.7835 33.1596 58.8146C33.1596 55.8458 33.1596 52.8986 33.1596 49.9298C33.1596 46.961 33.1596 44.0138 33.1596 41.045C33.1596 38.0761 33.1596 35.129 33.1596 32.1601C33.1596 29.1913 33.1596 26.2441 33.1596 24.7489V23.2753H51.5133Z" fill="#AF9F8B"/>
<path d="M292.692 31.4926L290.77 34.1655C288.819 36.8586 284.974 42.2045 281.101 41.8428C277.228 41.481 273.383 35.3714 269.509 34.3665C265.636 33.3616 261.791 37.4615 257.918 37.3811C254.045 37.3208 250.2 33.1004 246.327 31.8543C242.454 30.6284 238.609 32.3568 234.792 33.2411C230.975 34.1052 227.187 34.1052 223.37 34.7484C219.554 35.3714 215.709 36.6576 211.836 35.8135C207.962 34.9694 204.117 32.0352 200.244 31.5328C196.371 31.0303 192.526 32.9597 188.653 35.4719C184.78 37.9841 180.935 41.0791 177.062 39.6723C173.188 38.2654 169.343 32.3568 165.47 31.5328C161.597 30.6887 157.752 34.9091 153.879 38.4664C150.006 42.0036 146.161 44.8976 142.288 44.4957C138.414 44.0937 134.57 40.3958 130.696 40.4762C126.823 40.5364 122.978 44.355 119.105 43.4908C115.232 42.6065 111.387 37.0596 107.57 33.1607C103.754 29.2818 99.9652 27.0711 96.1485 27.9353C92.3318 28.8196 88.4869 32.7587 84.6137 35.8537C80.7405 38.9286 76.8956 41.1394 73.0224 41.6418C69.1492 42.1442 65.3043 40.9384 61.4311 41.7021C57.5579 42.4859 53.713 45.2192 49.8398 46.5054C45.9666 47.7715 42.1216 47.5706 40.1709 47.4701L38.2484 47.3696V17.4243H40.1709C42.1216 17.4243 45.9666 17.4243 49.8398 17.4243C53.713 17.4243 57.5579 17.4243 61.4311 17.4243C65.3043 17.4243 69.1492 17.4243 73.0224 17.4243C76.8956 17.4243 80.7405 17.4243 84.6137 17.4243C88.4869 17.4243 92.3318 17.4243 96.1485 17.4243C99.9652 17.4243 103.754 17.4243 107.57 17.4243C111.387 17.4243 115.232 17.4243 119.105 17.4243C122.978 17.4243 126.823 17.4243 130.696 17.4243C134.57 17.4243 138.414 17.4243 142.288 17.4243C146.161 17.4243 150.006 17.4243 153.879 17.4243C157.752 17.4243 161.597 17.4243 165.47 17.4243C169.343 17.4243 173.188 17.4243 177.062 17.4243C180.935 17.4243 184.78 17.4243 188.653 17.4243C192.526 17.4243 196.371 17.4243 200.244 17.4243C204.117 17.4243 207.962 17.4243 211.836 17.4243C215.709 17.4243 219.554 17.4243 223.37 17.4243C227.187 17.4243 230.975 17.4243 234.792 17.4243C238.609 17.4243 242.454 17.4243 246.327 17.4243C250.2 17.4243 254.045 17.4243 257.918 17.4243C261.791 17.4243 265.636 17.4243 269.509 17.4243C273.383 17.4243 277.228 17.4243 281.101 17.4243C284.974 17.4243 288.819 17.4243 290.77 17.4243H292.692V31.4926Z" fill="#AF9F8B"/>
<path d="M257.941 129.026L254.454 127.553C250.94 126.058 243.966 123.11 244.438 120.142C244.91 117.173 252.881 114.226 254.192 111.257C255.502 108.288 250.154 105.341 250.259 102.372C250.337 99.4032 255.843 96.456 257.469 93.4872C259.068 90.5183 256.813 87.5712 255.66 84.6457C254.532 81.7202 254.532 78.8163 253.693 75.8909C252.881 72.9654 251.202 70.0182 252.304 67.0494C253.405 64.0805 257.233 61.1334 257.888 58.1645C258.544 55.1957 256.027 52.2485 252.749 49.2797C249.472 46.3109 245.434 43.3637 247.27 40.3949C249.105 37.426 256.813 34.4789 257.888 31.51C258.99 28.5412 253.484 25.594 248.843 22.6252C244.228 19.6563 240.452 16.7092 240.977 13.7403C241.501 10.7715 246.326 7.82436 246.221 4.85551C246.142 1.88668 241.16 -1.06049 242.288 -4.02931C243.441 -6.99815 250.678 -9.94531 255.765 -12.8708C260.825 -15.7963 263.709 -18.7001 262.582 -21.6256C261.428 -24.5511 256.289 -27.4983 252.251 -30.4671C248.24 -33.4359 245.356 -36.3831 244.7 -39.3519C244.045 -42.3208 245.618 -45.2679 244.621 -48.2368C243.599 -51.2056 240.033 -54.1528 238.355 -57.1216C236.703 -60.0905 236.965 -63.0376 237.096 -64.5329L237.227 -66.0065H276.295V-64.5329C276.295 -63.0376 276.295 -60.0905 276.295 -57.1216C276.295 -54.1528 276.295 -51.2056 276.295 -48.2368C276.295 -45.2679 276.295 -42.3208 276.295 -39.3519C276.295 -36.3831 276.295 -33.4359 276.295 -30.4671C276.295 -27.4983 276.295 -24.5511 276.295 -21.6256C276.295 -18.7001 276.295 -15.7963 276.295 -12.8708C276.295 -9.94531 276.295 -6.99815 276.295 -4.02931C276.295 -1.06049 276.295 1.88668 276.295 4.85551C276.295 7.82436 276.295 10.7715 276.295 13.7403C276.295 16.7092 276.295 19.6563 276.295 22.6252C276.295 25.594 276.295 28.5412 276.295 31.51C276.295 34.4789 276.295 37.426 276.295 40.3949C276.295 43.3637 276.295 46.3109 276.295 49.2797C276.295 52.2485 276.295 55.1957 276.295 58.1645C276.295 61.1334 276.295 64.0805 276.295 67.0494C276.295 70.0182 276.295 72.9654 276.295 75.8909C276.295 78.8163 276.295 81.7202 276.295 84.6457C276.295 87.5712 276.295 90.5183 276.295 93.4872C276.295 96.456 276.295 99.4032 276.295 102.372C276.295 105.341 276.295 108.288 276.295 111.257C276.295 114.226 276.295 117.173 276.295 120.142C276.295 123.11 276.295 126.058 276.295 127.553V129.026H257.941Z" fill="#AF9F8B"/>
<path d="M27.5053 146.743L29.4277 144.501C31.3785 142.279 35.2234 137.796 39.0966 137.735C42.9698 137.675 46.8147 141.999 50.6879 142.479C54.5611 142.94 58.406 139.537 62.2792 137.075C66.1524 134.593 69.9974 133.072 73.8706 135.333C77.7438 137.595 81.5887 143.68 85.4053 143.24C89.222 142.8 93.0104 135.874 96.827 134.633C100.644 133.392 104.489 137.876 108.362 138.476C112.235 139.077 116.08 135.794 119.953 136.935C123.826 138.076 127.671 143.6 131.544 144.481C135.418 145.342 139.263 141.539 143.136 141.379C147.009 141.198 150.854 144.681 154.727 142.94C158.6 141.198 162.445 134.273 166.318 134.393C170.192 134.533 174.037 141.739 177.91 142.439C181.783 143.14 185.628 137.335 189.501 136.274C193.374 135.193 197.219 138.876 201.092 140.398C204.966 141.939 208.811 141.339 212.627 142.079C216.444 142.8 220.232 144.881 224.049 144.341C227.866 143.801 231.71 140.678 235.584 138.376C239.457 136.074 243.302 134.593 247.175 135.273C251.048 135.934 254.893 138.736 258.766 140.878C262.639 143 266.484 144.481 270.358 145.682C274.231 146.883 278.076 147.804 280.026 148.284L281.949 148.745V151.347H280.026C278.076 151.347 274.231 151.347 270.358 151.347C266.484 151.347 262.639 151.347 258.766 151.347C254.893 151.347 251.048 151.347 247.175 151.347C243.302 151.347 239.457 151.347 235.584 151.347C231.71 151.347 227.866 151.347 224.049 151.347C220.232 151.347 216.444 151.347 212.627 151.347C208.811 151.347 204.966 151.347 201.092 151.347C197.219 151.347 193.374 151.347 189.501 151.347C185.628 151.347 181.783 151.347 177.91 151.347C174.037 151.347 170.192 151.347 166.318 151.347C162.445 151.347 158.6 151.347 154.727 151.347C150.854 151.347 147.009 151.347 143.136 151.347C139.263 151.347 135.418 151.347 131.544 151.347C127.671 151.347 123.826 151.347 119.953 151.347C116.08 151.347 112.235 151.347 108.362 151.347C104.489 151.347 100.644 151.347 96.827 151.347C93.0104 151.347 89.222 151.347 85.4053 151.347C81.5887 151.347 77.7438 151.347 73.8706 151.347C69.9974 151.347 66.1524 151.347 62.2792 151.347C58.406 151.347 54.5611 151.347 50.6879 151.347C46.8147 151.347 42.9698 151.347 39.0966 151.347C35.2234 151.347 31.3785 151.347 29.4277 151.347H27.5053V146.743Z" fill="#918371"/>
<path d="M36.3387 17.4243L39.2635 18.8979C42.1622 20.3932 48.0118 23.3403 48.0901 26.3092C48.1685 29.278 42.5278 32.2251 41.9011 35.194C41.3004 38.1628 45.7399 41.11 48.9519 44.0788C52.1901 47.0477 54.1748 49.9948 51.2239 52.9637C48.2729 55.9325 40.3342 58.8797 40.9087 61.8051C41.4832 64.7306 50.5188 67.6345 52.1379 70.56C53.7569 73.4855 47.9073 76.4326 47.1239 79.4015C46.3405 82.3703 50.6232 85.3175 49.1347 88.2863C47.6462 91.2551 40.4387 94.2023 39.2896 97.1711C38.1667 100.14 43.1284 103.087 43.3373 106.056C43.5724 109.025 39.0285 111.972 41.3004 114.941C43.5724 117.91 52.6079 120.857 52.4512 123.826C52.2684 126.794 42.8673 129.742 41.9533 132.71C41.0393 135.679 48.6124 138.626 49.9965 141.595C51.4067 144.564 46.6016 147.511 44.617 150.48C42.6062 153.449 43.3896 156.396 42.4233 159.322C41.4832 162.247 38.7673 165.151 39.4724 168.076C40.1775 171.002 44.2513 173.949 47.2545 176.918C50.2576 179.887 52.1901 182.834 51.3022 185.803C50.4404 188.772 46.7844 191.719 43.9902 194.688C41.2221 197.656 39.2896 200.604 37.7228 203.572C36.1559 206.541 34.9547 209.488 34.3279 210.984L33.7273 212.457H30.3324V210.984C30.3324 209.488 30.3324 206.541 30.3324 203.572C30.3324 200.604 30.3324 197.656 30.3324 194.688C30.3324 191.719 30.3324 188.772 30.3324 185.803C30.3324 182.834 30.3324 179.887 30.3324 176.918C30.3324 173.949 30.3324 171.002 30.3324 168.076C30.3324 165.151 30.3324 162.247 30.3324 159.322C30.3324 156.396 30.3324 153.449 30.3324 150.48C30.3324 147.511 30.3324 144.564 30.3324 141.595C30.3324 138.626 30.3324 135.679 30.3324 132.71C30.3324 129.742 30.3324 126.794 30.3324 123.826C30.3324 120.857 30.3324 117.91 30.3324 114.941C30.3324 111.972 30.3324 109.025 30.3324 106.056C30.3324 103.087 30.3324 100.14 30.3324 97.1711C30.3324 94.2023 30.3324 91.2551 30.3324 88.2863C30.3324 85.3175 30.3324 82.3703 30.3324 79.4015C30.3324 76.4326 30.3324 73.4855 30.3324 70.56C30.3324 67.6345 30.3324 64.7306 30.3324 61.8051C30.3324 58.8797 30.3324 55.9325 30.3324 52.9637C30.3324 49.9948 30.3324 47.0477 30.3324 44.0788C30.3324 41.11 30.3324 38.1628 30.3324 35.194C30.3324 32.2251 30.3324 29.278 30.3324 26.3092C30.3324 23.3403 30.3324 20.3932 30.3324 18.8979V17.4243H36.3387Z" fill="#918371"/>
<path d="M281.949 28.5293L280.026 30.7711C278.076 32.993 274.231 37.4768 270.358 37.5368C266.484 37.5969 262.639 33.2732 258.766 32.7928C254.893 32.3324 251.048 35.7353 247.175 38.1974C243.302 40.6794 239.457 42.2007 235.584 39.9388C231.71 37.6769 227.866 31.5918 224.049 32.0322C220.232 32.4726 216.444 39.3984 212.627 40.6394C208.811 41.8805 204.966 37.3967 201.092 36.7962C197.219 36.1957 193.374 39.4784 189.501 38.3375C185.628 37.1965 181.783 31.6719 177.91 30.7912C174.037 29.9304 170.192 33.7336 166.318 33.8938C162.445 34.0739 158.6 30.591 154.727 32.3324C150.854 34.0739 147.009 40.9997 143.136 40.8796C139.263 40.7395 135.418 33.5335 131.544 32.8329C127.671 32.1323 123.826 37.9371 119.953 38.998C116.08 40.0789 112.235 36.3959 108.362 34.8746C104.489 33.3333 100.644 33.9338 96.827 33.1932C93.0104 32.4726 89.222 30.3908 85.4053 30.9313C81.5887 31.4717 77.7438 34.5943 73.8706 36.8963C69.9974 39.1982 66.1525 40.6794 62.2793 39.9989C58.4061 39.3383 54.5611 36.536 50.6879 34.3942C46.8147 32.2724 42.9698 30.7912 39.0966 29.5901C35.2234 28.3891 31.3785 27.4684 29.4277 26.988L27.5053 26.5276V23.9254H29.4277C31.3785 23.9254 35.2234 23.9254 39.0966 23.9254C42.9698 23.9254 46.8147 23.9254 50.6879 23.9254C54.5611 23.9254 58.4061 23.9254 62.2793 23.9254C66.1525 23.9254 69.9974 23.9254 73.8706 23.9254C77.7438 23.9254 81.5887 23.9254 85.4053 23.9254C89.222 23.9254 93.0104 23.9254 96.827 23.9254C100.644 23.9254 104.489 23.9254 108.362 23.9254C112.235 23.9254 116.08 23.9254 119.953 23.9254C123.826 23.9254 127.671 23.9254 131.544 23.9254C135.418 23.9254 139.263 23.9254 143.136 23.9254C147.009 23.9254 150.854 23.9254 154.727 23.9254C158.6 23.9254 162.445 23.9254 166.318 23.9254C170.192 23.9254 174.037 23.9254 177.91 23.9254C181.783 23.9254 185.628 23.9254 189.501 23.9254C193.374 23.9254 197.219 23.9254 201.092 23.9254C204.966 23.9254 208.811 23.9254 212.627 23.9254C216.444 23.9254 220.232 23.9254 224.049 23.9254C227.866 23.9254 231.71 23.9254 235.584 23.9254C239.457 23.9254 243.302 23.9254 247.175 23.9254C251.048 23.9254 254.893 23.9254 258.766 23.9254C262.639 23.9254 266.484 23.9254 270.358 23.9254C274.231 23.9254 278.076 23.9254 280.026 23.9254H281.949V28.5293Z" fill="#918371"/>
<path d="M270.288 153.514L267.363 152.04C264.465 150.545 258.615 147.598 258.537 144.629C258.459 141.66 264.099 138.713 264.726 135.744C265.327 132.775 260.887 129.828 257.675 126.859C254.437 123.891 252.452 120.943 255.403 117.975C258.354 115.006 266.293 112.059 265.718 109.133C265.144 106.208 256.108 103.304 254.489 100.378C252.87 97.4528 258.72 94.5057 259.503 91.5368C260.287 88.568 256.004 85.6208 257.492 82.652C258.981 79.6832 266.188 76.736 267.337 73.7672C268.46 70.7983 263.499 67.8512 263.29 64.8823C263.055 61.9135 267.599 58.9663 265.327 55.9975C263.055 53.0287 254.019 50.0815 254.176 47.1127C254.359 44.1438 263.76 41.1967 264.674 38.2278C265.588 35.259 258.015 32.3118 256.631 29.343C255.22 26.3742 260.025 23.427 262.01 20.4582C264.021 17.4893 263.237 14.5422 264.204 11.6167C265.144 8.69119 267.86 5.78735 267.155 2.86186C266.449 -0.0636292 262.376 -3.01079 259.373 -5.97963C256.369 -8.94846 254.437 -11.8956 255.325 -14.8645C256.187 -17.8333 259.843 -20.7805 262.637 -23.7493C265.405 -26.7181 267.337 -29.6653 268.904 -32.6341C270.471 -35.603 271.672 -38.5501 272.299 -40.0454L272.9 -41.519H276.295V-40.0454C276.295 -38.5501 276.295 -35.603 276.295 -32.6341C276.295 -29.6653 276.295 -26.7181 276.295 -23.7493C276.295 -20.7805 276.295 -17.8333 276.295 -14.8645C276.295 -11.8956 276.295 -8.94846 276.295 -5.97963C276.295 -3.01079 276.295 -0.0636292 276.295 2.86186C276.295 5.78735 276.295 8.69119 276.295 11.6167C276.295 14.5422 276.295 17.4893 276.295 20.4582C276.295 23.427 276.295 26.3742 276.295 29.343C276.295 32.3118 276.295 35.259 276.295 38.2278C276.295 41.1967 276.295 44.1438 276.295 47.1127C276.295 50.0815 276.295 53.0287 276.295 55.9975C276.295 58.9663 276.295 61.9135 276.295 64.8823C276.295 67.8512 276.295 70.7983 276.295 73.7672C276.295 76.736 276.295 79.6832 276.295 82.652C276.295 85.6208 276.295 88.568 276.295 91.5368C276.295 94.5057 276.295 97.4528 276.295 100.378C276.295 103.304 276.295 106.208 276.295 109.133C276.295 112.059 276.295 115.006 276.295 117.975C276.295 120.943 276.295 123.891 276.295 126.859C276.295 129.828 276.295 132.775 276.295 135.744C276.295 138.713 276.295 141.66 276.295 144.629C276.295 147.598 276.295 150.545 276.295 152.04V153.514H270.288Z" fill="#918371"/>
<path d="M27.5053 153.086L29.3429 152.418C31.1806 151.75 34.8559 150.414 38.5312 147.303C42.2065 144.173 45.8818 139.287 49.5571 136.672C53.2324 134.057 56.9077 133.752 60.6395 134.763C64.3431 135.775 68.1314 138.142 71.835 140.776C75.5669 143.41 79.2421 146.349 82.9174 145.223C86.5927 144.116 90.268 138.962 93.9433 139.191C97.6186 139.401 101.294 145.013 104.969 145.967C108.645 146.921 112.32 143.219 115.995 142.493C119.67 141.768 123.346 143.982 127.021 143.391C130.696 142.78 134.372 139.344 138.047 137.436C141.722 135.527 145.397 135.145 149.129 137.397C152.833 139.669 156.621 144.555 160.325 147.513C164.057 150.472 167.732 151.502 171.407 151.884C175.083 152.266 178.758 151.998 182.433 151.311C186.108 150.605 189.784 149.46 193.459 146.406C197.134 143.352 200.81 138.39 204.485 139.001C208.16 139.592 211.836 145.776 215.511 147.742C219.186 149.708 222.861 147.494 226.537 147.799C230.212 148.124 233.887 150.987 237.619 151.998C241.323 153.029 245.111 152.189 248.815 150.09C252.547 147.99 256.222 144.631 259.897 145.013C263.572 145.395 267.248 149.517 270.923 148.467C274.598 147.418 278.274 141.196 280.111 138.065L281.949 134.954V156.331H280.111C278.274 156.331 274.598 156.331 270.923 156.331C267.248 156.331 263.572 156.331 259.897 156.331C256.222 156.331 252.547 156.331 248.815 156.331C245.111 156.331 241.323 156.331 237.619 156.331C233.887 156.331 230.212 156.331 226.537 156.331C222.861 156.331 219.186 156.331 215.511 156.331C211.836 156.331 208.16 156.331 204.485 156.331C200.81 156.331 197.134 156.331 193.459 156.331C189.784 156.331 186.108 156.331 182.433 156.331C178.758 156.331 175.083 156.331 171.407 156.331C167.732 156.331 164.057 156.331 160.325 156.331C156.621 156.331 152.833 156.331 149.129 156.331C145.397 156.331 141.722 156.331 138.047 156.331C134.372 156.331 130.696 156.331 127.021 156.331C123.346 156.331 119.67 156.331 115.995 156.331C112.32 156.331 108.645 156.331 104.969 156.331C101.294 156.331 97.6186 156.331 93.9433 156.331C90.268 156.331 86.5927 156.331 82.9174 156.331C79.2421 156.331 75.5669 156.331 71.835 156.331C68.1314 156.331 64.3431 156.331 60.6395 156.331C56.9077 156.331 53.2324 156.331 49.5571 156.331C45.8818 156.331 42.2065 156.331 38.5312 156.331C34.8559 156.331 31.1806 156.331 29.3429 156.331H27.5053V153.086Z" fill="#746858"/>
<path d="M29.1939 6.58914L30.0655 7.99771C30.937 9.40628 32.68 12.2234 36.7388 15.0406C40.8225 17.8577 47.197 20.6749 50.6084 23.492C54.0197 26.3091 54.4181 29.1263 53.0984 31.9868C51.7787 34.8256 48.691 37.7294 45.2548 40.5682C41.8185 43.4287 37.9838 46.2458 39.4529 49.063C40.8972 51.8801 47.6203 54.6973 47.3215 57.5144C47.0476 60.3316 39.7268 63.1487 38.4818 65.9658C37.2368 68.783 42.0675 71.6001 43.0137 74.4173C43.9599 77.2344 41.0715 80.0516 41.8434 82.8687C42.6402 85.6858 47.1223 88.503 49.6123 91.3201C52.1024 94.1373 52.6004 96.9544 49.6621 99.8149C46.699 102.654 40.3245 105.558 36.4649 108.396C32.6053 111.257 31.2607 114.074 30.7627 116.891C30.2647 119.708 30.6133 122.525 31.5097 125.343C32.431 128.16 33.925 130.977 37.9091 133.794C41.8932 136.611 48.3673 139.428 47.5705 142.245C46.7986 145.063 38.7308 147.88 36.1661 150.697C33.6013 153.514 36.4898 156.331 36.0914 159.148C35.6681 161.965 31.933 164.783 30.6133 167.643C29.2686 170.482 30.3643 173.386 33.1033 176.224C35.8424 179.085 40.2249 181.902 39.7268 184.719C39.2288 187.536 33.8503 190.354 35.2199 193.171C36.5894 195.988 44.7069 198.805 48.7906 200.214L52.8494 201.622H24.9608V200.214C24.9608 198.805 24.9608 195.988 24.9608 193.171C24.9608 190.354 24.9608 187.536 24.9608 184.719C24.9608 181.902 24.9608 179.085 24.9608 176.224C24.9608 173.386 24.9608 170.482 24.9608 167.643C24.9608 164.783 24.9608 161.965 24.9608 159.148C24.9608 156.331 24.9608 153.514 24.9608 150.697C24.9608 147.88 24.9608 145.063 24.9608 142.245C24.9608 139.428 24.9608 136.611 24.9608 133.794C24.9608 130.977 24.9608 128.16 24.9608 125.343C24.9608 122.525 24.9608 119.708 24.9608 116.891C24.9608 114.074 24.9608 111.257 24.9608 108.396C24.9608 105.558 24.9608 102.654 24.9608 99.8149C24.9608 96.9544 24.9608 94.1373 24.9608 91.3201C24.9608 88.503 24.9608 85.6858 24.9608 82.8687C24.9608 80.0516 24.9608 77.2344 24.9608 74.4173C24.9608 71.6001 24.9608 68.783 24.9608 65.9658C24.9608 63.1487 24.9608 60.3316 24.9608 57.5144C24.9608 54.6973 24.9608 51.8801 24.9608 49.063C24.9608 46.2458 24.9608 43.4287 24.9608 40.5682C24.9608 37.7294 24.9608 34.8256 24.9608 31.9868C24.9608 29.1263 24.9608 26.3091 24.9608 23.492C24.9608 20.6749 24.9608 17.8577 24.9608 15.0406C24.9608 12.2234 24.9608 9.40628 24.9608 7.99771V6.58914H29.1939Z" fill="#746858"/>
<path d="M292.692 26.52L290.854 27.188C289.017 27.856 285.341 29.1921 281.666 32.3032C277.991 35.4333 274.316 40.3195 270.64 42.9343C266.965 45.5491 263.29 45.8545 259.558 44.8429C255.854 43.8314 252.066 41.4647 248.362 38.8307C244.631 36.1968 240.955 33.2575 237.28 34.3836C233.605 35.4906 229.929 40.6439 226.254 40.4149C222.579 40.2049 218.903 34.5935 215.228 33.6392C211.553 32.6849 207.878 36.3877 204.202 37.1129C200.527 37.8382 196.852 35.6242 193.176 36.2159C189.501 36.8266 185.826 40.2622 182.15 42.1708C178.475 44.0795 174.8 44.4612 171.068 42.209C167.364 39.9377 163.576 35.0516 159.873 32.0932C156.141 29.1348 152.465 28.1042 148.79 27.7224C145.115 27.3407 141.439 27.6079 137.764 28.295C134.089 29.0012 130.414 30.1464 126.738 33.2002C123.063 36.2541 119.388 41.2165 115.712 40.6058C112.037 40.0141 108.362 33.8301 104.687 31.8642C101.011 29.8983 97.3359 32.1123 93.6606 31.8069C89.9853 31.4825 86.31 28.6195 82.5782 27.6079C78.8746 26.5772 75.0862 27.4171 71.3827 29.5166C67.6508 31.6161 63.9755 34.9753 60.3002 34.5935C56.6249 34.2118 52.9496 30.0892 49.2743 31.1389C45.599 32.1887 41.9238 38.4108 40.0861 41.541L38.2484 44.6521V23.2753H40.0861C41.9238 23.2753 45.599 23.2753 49.2743 23.2753C52.9496 23.2753 56.6249 23.2753 60.3002 23.2753C63.9755 23.2753 67.6508 23.2753 71.3827 23.2753C75.0862 23.2753 78.8746 23.2753 82.5782 23.2753C86.31 23.2753 89.9853 23.2753 93.6606 23.2753C97.3359 23.2753 101.011 23.2753 104.687 23.2753C108.362 23.2753 112.037 23.2753 115.712 23.2753C119.388 23.2753 123.063 23.2753 126.738 23.2753C130.414 23.2753 134.089 23.2753 137.764 23.2753C141.439 23.2753 145.115 23.2753 148.79 23.2753C152.465 23.2753 156.141 23.2753 159.873 23.2753C163.576 23.2753 167.364 23.2753 171.068 23.2753C174.8 23.2753 178.475 23.2753 182.15 23.2753C185.826 23.2753 189.501 23.2753 193.176 23.2753C196.852 23.2753 200.527 23.2753 204.202 23.2753C207.878 23.2753 211.553 23.2753 215.228 23.2753C218.903 23.2753 222.579 23.2753 226.254 23.2753C229.929 23.2753 233.605 23.2753 237.28 23.2753C240.955 23.2753 244.631 23.2753 248.362 23.2753C252.066 23.2753 255.854 23.2753 259.558 23.2753C263.29 23.2753 266.965 23.2753 270.64 23.2753C274.316 23.2753 277.991 23.2753 281.666 23.2753C285.341 23.2753 289.017 23.2753 290.854 23.2753H292.692V26.52Z" fill="#746858"/>
<path d="M277.467 204.006L276.544 202.597C275.621 201.189 273.776 198.372 269.478 195.554C265.154 192.737 258.405 189.92 254.793 187.103C251.181 184.286 250.759 181.469 252.156 178.608C253.554 175.769 256.823 172.866 260.461 170.027C264.1 167.166 268.16 164.349 266.604 161.532C265.075 158.715 257.957 155.898 258.273 153.081C258.563 150.263 266.314 147.446 267.633 144.629C268.951 141.812 263.836 138.995 262.834 136.178C261.832 133.361 264.891 130.543 264.073 127.726C263.23 124.909 258.484 122.092 255.847 119.275C253.211 116.458 252.683 113.641 255.795 110.78C258.932 107.941 265.682 105.037 269.768 102.199C273.855 99.3382 275.278 96.521 275.806 93.7039C276.333 90.8867 275.964 88.0696 275.015 85.2524C274.039 82.4353 272.457 79.6182 268.239 76.801C264.021 73.9839 257.166 71.1667 258.009 68.3496C258.827 65.5324 267.369 62.7153 270.085 59.8982C272.8 57.081 269.742 54.2639 270.164 51.4467C270.612 48.6296 274.567 45.8124 275.964 42.952C277.388 40.1131 276.228 37.2093 273.327 34.3705C270.427 31.51 265.787 28.6929 266.314 25.8757C266.842 23.0586 272.536 20.2415 271.086 17.4243C269.636 14.6072 261.041 11.79 256.717 10.3815L252.42 8.97289H281.949V10.3815C281.949 11.79 281.949 14.6072 281.949 17.4243C281.949 20.2415 281.949 23.0586 281.949 25.8757C281.949 28.6929 281.949 31.51 281.949 34.3705C281.949 37.2093 281.949 40.1131 281.949 42.952C281.949 45.8124 281.949 48.6296 281.949 51.4467C281.949 54.2639 281.949 57.081 281.949 59.8982C281.949 62.7153 281.949 65.5324 281.949 68.3496C281.949 71.1667 281.949 73.9839 281.949 76.801C281.949 79.6182 281.949 82.4353 281.949 85.2524C281.949 88.0696 281.949 90.8867 281.949 93.7039C281.949 96.521 281.949 99.3382 281.949 102.199C281.949 105.037 281.949 107.941 281.949 110.78C281.949 113.641 281.949 116.458 281.949 119.275C281.949 122.092 281.949 124.909 281.949 127.726C281.949 130.543 281.949 133.361 281.949 136.178C281.949 138.995 281.949 141.812 281.949 144.629C281.949 147.446 281.949 150.263 281.949 153.081C281.949 155.898 281.949 158.715 281.949 161.532C281.949 164.349 281.949 167.166 281.949 170.027C281.949 172.866 281.949 175.769 281.949 178.608C281.949 181.469 281.949 184.286 281.949 187.103C281.949 189.92 281.949 192.737 281.949 195.554C281.949 198.372 281.949 201.189 281.949 202.597V204.006H277.467Z" fill="#746858"/>
<path d="M27.5053 137.686L29.3429 137.751C31.1806 137.838 34.8559 137.968 38.5312 139.638C42.2065 141.307 45.8818 144.472 49.5571 146.727C53.2324 148.96 56.9077 150.26 60.6395 151.236C64.3431 152.212 68.1314 152.862 71.835 152.147C75.5669 151.41 79.2421 149.328 82.9174 147.225C86.5927 145.122 90.268 143.041 93.9433 144.017C97.6186 144.992 101.294 149.025 104.969 147.832C108.645 146.64 112.32 140.223 115.995 138.228C119.67 136.234 123.346 138.705 127.021 138.814C130.696 138.922 134.372 136.667 138.047 135.237C141.722 133.784 145.397 133.134 149.129 136.104C152.833 139.052 156.621 145.643 160.325 148.569C164.057 151.496 167.732 150.759 171.407 150.802C175.083 150.846 178.758 151.626 182.433 148.461C186.108 145.274 189.784 138.12 193.459 138.51C197.134 138.922 200.81 146.857 204.485 148.374C208.16 149.892 211.836 144.992 215.511 142.087C219.186 139.204 222.861 138.337 226.537 140.873C230.212 143.388 233.887 149.328 237.619 150.954C241.323 152.58 245.111 149.892 248.815 148.569C252.547 147.225 256.222 147.225 259.897 145.751C263.572 144.255 267.248 141.307 270.923 139.811C274.598 138.337 278.274 138.337 280.111 138.337H281.949V157.198H280.111C278.274 157.198 274.598 157.198 270.923 157.198C267.248 157.198 263.572 157.198 259.897 157.198C256.222 157.198 252.547 157.198 248.815 157.198C245.111 157.198 241.323 157.198 237.619 157.198C233.887 157.198 230.212 157.198 226.537 157.198C222.861 157.198 219.186 157.198 215.511 157.198C211.836 157.198 208.16 157.198 204.485 157.198C200.81 157.198 197.134 157.198 193.459 157.198C189.784 157.198 186.108 157.198 182.433 157.198C178.758 157.198 175.083 157.198 171.407 157.198C167.732 157.198 164.057 157.198 160.325 157.198C156.621 157.198 152.833 157.198 149.129 157.198C145.397 157.198 141.722 157.198 138.047 157.198C134.372 157.198 130.696 157.198 127.021 157.198C123.346 157.198 119.67 157.198 115.995 157.198C112.32 157.198 108.645 157.198 104.969 157.198C101.294 157.198 97.6186 157.198 93.9433 157.198C90.268 157.198 86.5927 157.198 82.9174 157.198C79.2421 157.198 75.5669 157.198 71.835 157.198C68.1314 157.198 64.3431 157.198 60.6395 157.198C56.9077 157.198 53.2324 157.198 49.5571 157.198C45.8818 157.198 42.2065 157.198 38.5312 157.198C34.8559 157.198 31.1806 157.198 29.3429 157.198H27.5053V137.686Z" fill="#594E40"/>
<path d="M51.1493 23.2753L51.0644 24.6839C50.9513 26.0924 50.7816 28.9096 48.6037 31.7267C46.4259 34.5439 42.2965 37.361 39.355 40.1782C36.4418 42.9953 34.7448 45.8124 33.4721 48.6729C32.1993 51.5117 31.3508 54.4156 32.2841 57.2544C33.2458 60.1149 35.961 62.932 38.7045 65.7491C41.448 68.5663 44.1632 71.3834 42.8905 74.2006C41.6177 77.0177 36.357 79.8349 37.9126 82.652C39.4682 85.4691 47.8401 88.2863 50.4422 91.1034C53.0442 93.9206 49.8199 96.7377 49.6785 99.5548C49.5371 102.372 52.4786 105.189 54.3453 108.006C56.2403 110.823 57.0888 113.641 53.2139 116.501C49.3674 119.34 40.7692 122.244 36.9509 125.082C33.1327 127.943 34.0943 130.76 34.0377 133.577C33.9812 136.394 32.9629 139.212 37.0923 142.029C41.25 144.846 50.5836 147.663 50.0745 150.48C49.5371 153.297 39.1853 156.114 37.2055 158.932C35.2256 161.749 41.6177 164.566 45.4077 167.383C49.1694 170.2 50.3007 173.017 46.9916 175.834C43.7107 178.652 35.961 181.469 33.8397 184.329C31.7185 187.168 35.2256 190.072 36.9509 192.911C38.7045 195.771 38.7045 198.588 40.6278 201.405C42.5793 204.223 46.4259 207.04 48.3775 209.857C50.3008 212.674 50.3007 215.491 50.3007 216.9V218.308H25.6941V216.9C25.6941 215.491 25.6941 212.674 25.6941 209.857C25.6941 207.04 25.6941 204.223 25.6941 201.405C25.6941 198.588 25.6941 195.771 25.6941 192.911C25.6941 190.072 25.6941 187.168 25.6941 184.329C25.6941 181.469 25.6941 178.652 25.6941 175.834C25.6941 173.017 25.6941 170.2 25.6941 167.383C25.6941 164.566 25.6941 161.749 25.6941 158.932C25.6941 156.114 25.6941 153.297 25.6941 150.48C25.6941 147.663 25.6941 144.846 25.6941 142.029C25.6941 139.212 25.6941 136.394 25.6941 133.577C25.6941 130.76 25.6941 127.943 25.6941 125.082C25.6941 122.244 25.6941 119.34 25.6941 116.501C25.6941 113.641 25.6941 110.823 25.6941 108.006C25.6941 105.189 25.6941 102.372 25.6941 99.5548C25.6941 96.7377 25.6941 93.9206 25.6941 91.1034C25.6941 88.2863 25.6941 85.4691 25.6941 82.652C25.6941 79.8349 25.6941 77.0177 25.6941 74.2006C25.6941 71.3834 25.6941 68.5663 25.6941 65.7491C25.6941 62.932 25.6941 60.1149 25.6941 57.2544C25.6941 54.4156 25.6941 51.5117 25.6941 48.6729C25.6941 45.8124 25.6941 42.9953 25.6941 40.1782C25.6941 37.361 25.6941 34.5439 25.6941 31.7267C25.6941 28.9096 25.6941 26.0924 25.6941 24.6839V23.2753H51.1493Z" fill="#594E40"/>
<path d="M281.949 39.3196L280.111 39.2546C278.274 39.1679 274.598 39.0378 270.923 37.3685C267.248 35.6991 263.572 32.5339 259.897 30.2793C256.222 28.0463 252.547 26.7455 248.815 25.7699C245.111 24.7943 241.323 24.144 237.619 24.8594C233.887 25.5965 230.212 27.6777 226.537 29.7806C222.861 31.8835 219.186 33.9648 215.511 32.9892C211.836 32.0136 208.16 27.9812 204.485 29.1736C200.81 30.366 197.134 36.7831 193.459 38.7776C189.784 40.7722 186.108 38.3007 182.433 38.1923C178.758 38.0839 175.083 40.3386 171.407 41.7694C167.732 43.2219 164.057 43.8723 160.325 40.9022C156.621 37.9538 152.833 31.3632 149.129 28.4365C145.398 25.5098 141.722 26.2469 138.047 26.2035C134.372 26.1601 130.696 25.3797 127.021 28.5449C123.346 31.7318 119.67 38.886 115.995 38.4958C112.32 38.0839 108.645 30.1492 104.969 28.6316C101.294 27.1141 97.6186 32.0136 93.9433 34.9187C90.2681 37.8021 86.5928 38.6692 82.9174 36.1327C79.2422 33.6179 75.5669 27.6777 71.835 26.0518C68.1315 24.4258 64.3431 27.114 60.6395 28.4365C56.9077 29.7806 53.2324 29.7806 49.5571 31.2548C45.8818 32.7507 42.2065 35.6991 38.5312 37.195C34.8559 38.6692 31.1806 38.6692 29.3429 38.6692H27.5053V19.808H29.3429C31.1806 19.808 34.8559 19.808 38.5312 19.808C42.2065 19.808 45.8818 19.808 49.5571 19.808C53.2324 19.808 56.9077 19.808 60.6395 19.808C64.3431 19.808 68.1315 19.808 71.835 19.808C75.5669 19.808 79.2422 19.808 82.9174 19.808C86.5928 19.808 90.2681 19.808 93.9433 19.808C97.6186 19.808 101.294 19.808 104.969 19.808C108.645 19.808 112.32 19.808 115.995 19.808C119.67 19.808 123.346 19.808 127.021 19.808C130.696 19.808 134.372 19.808 138.047 19.808C141.722 19.808 145.398 19.808 149.129 19.808C152.833 19.808 156.621 19.808 160.325 19.808C164.057 19.808 167.732 19.808 171.407 19.808C175.083 19.808 178.758 19.808 182.433 19.808C186.108 19.808 189.784 19.808 193.459 19.808C197.134 19.808 200.81 19.808 204.485 19.808C208.16 19.808 211.836 19.808 215.511 19.808C219.186 19.808 222.861 19.808 226.537 19.808C230.212 19.808 233.887 19.808 237.619 19.808C241.323 19.808 245.111 19.808 248.815 19.808C252.547 19.808 256.222 19.808 259.897 19.808C263.572 19.808 267.248 19.808 270.923 19.808C274.598 19.808 278.274 19.808 280.111 19.808H281.949V39.3196Z" fill="#594E40"/>
<path d="M261.345 173.358L261.43 171.949C261.543 170.541 261.713 167.724 263.891 164.906C266.069 162.089 270.198 159.272 273.139 156.455C276.053 153.638 277.75 150.821 279.022 147.96C280.295 145.121 281.144 142.218 280.21 139.379C279.249 136.518 276.533 133.701 273.79 130.884C271.046 128.067 268.331 125.25 269.604 122.433C270.877 119.615 276.137 116.798 274.582 113.981C273.026 111.164 264.654 108.347 262.052 105.53C259.45 102.713 262.675 99.8954 262.816 97.0782C262.957 94.2611 260.016 91.444 258.149 88.6268C256.254 85.8097 255.406 82.9925 259.281 80.132C263.127 77.2932 271.725 74.3894 275.544 71.5506C279.362 68.6901 278.4 65.873 278.457 63.0558C278.513 60.2387 279.532 57.4215 275.402 54.6044C271.244 51.7873 261.911 48.9701 262.42 46.153C262.957 43.3358 273.309 40.5187 275.289 37.7015C277.269 34.8844 270.877 32.0673 267.087 29.2501C263.325 26.433 262.194 23.6158 265.503 20.7987C268.784 17.9816 276.533 15.1644 278.655 12.3039C280.776 9.4651 277.269 6.56129 275.544 3.72247C273.79 0.861984 273.79 -1.95515 271.867 -4.77229C269.915 -7.58943 266.069 -10.4066 264.117 -13.2237C262.194 -16.0409 262.194 -18.858 262.194 -20.2666V-21.6752H286.8V-20.2666C286.8 -18.858 286.8 -16.0409 286.8 -13.2237C286.8 -10.4066 286.8 -7.58943 286.8 -4.77229C286.8 -1.95515 286.8 0.861984 286.8 3.72247C286.8 6.56129 286.8 9.4651 286.8 12.3039C286.8 15.1644 286.8 17.9816 286.8 20.7987C286.8 23.6158 286.8 26.433 286.8 29.2501C286.8 32.0673 286.8 34.8844 286.8 37.7015C286.8 40.5187 286.8 43.3358 286.8 46.153C286.8 48.9701 286.8 51.7873 286.8 54.6044C286.8 57.4215 286.8 60.2387 286.8 63.0558C286.8 65.873 286.8 68.6901 286.8 71.5506C286.8 74.3894 286.8 77.2932 286.8 80.132C286.8 82.9925 286.8 85.8097 286.8 88.6268C286.8 91.444 286.8 94.2611 286.8 97.0782C286.8 99.8954 286.8 102.713 286.8 105.53C286.8 108.347 286.8 111.164 286.8 113.981C286.8 116.798 286.8 119.615 286.8 122.433C286.8 125.25 286.8 128.067 286.8 130.884C286.8 133.701 286.8 136.518 286.8 139.379C286.8 142.218 286.8 145.121 286.8 147.96C286.8 150.821 286.8 153.638 286.8 156.455C286.8 159.272 286.8 162.089 286.8 164.906C286.8 167.724 286.8 170.541 286.8 171.949V173.358H261.345Z" fill="#594E40"/>
</g>
<path d="M27.5053 3.73275L29.3429 3.79778C31.1806 3.8845 34.8559 4.01458 38.5312 5.6839C42.2065 7.35323 45.8818 10.5184 49.5571 12.7731C53.2324 15.0061 56.9077 16.3069 60.6395 17.2824C64.3431 18.258 68.1314 18.9084 71.835 18.193C75.5669 17.4559 79.2421 15.3747 82.9174 13.2717C86.5927 11.1688 90.268 9.08759 93.9433 10.0632C97.6186 11.0387 101.294 15.0711 104.969 13.8788C108.645 12.6864 112.32 6.26925 115.995 4.27473C119.67 2.28022 123.346 4.75169 127.021 4.86008C130.696 4.96848 134.372 2.71381 138.047 1.28296C141.722 -0.169566 145.397 -0.819951 149.129 2.15014C152.833 5.09856 156.621 11.6891 160.325 14.6159C164.057 17.5426 167.732 16.8055 171.407 16.8489C175.083 16.8922 178.758 17.6727 182.433 14.5075C186.108 11.3206 189.784 4.16633 193.459 4.55657C197.134 4.96848 200.81 12.9032 204.485 14.4207C208.16 15.9383 211.836 11.0387 215.511 8.13369C219.186 5.25031 222.861 4.38313 226.537 6.91964C230.212 9.43446 233.887 15.3747 237.619 17.0006C241.323 18.6266 245.111 15.9383 248.815 14.6159C252.547 13.2717 256.222 13.2717 259.897 11.7975C263.572 10.3016 267.248 7.35322 270.923 5.85734C274.598 4.38313 278.274 4.38313 280.111 4.38313H281.949V23.2443H280.111C278.274 23.2443 274.598 23.2443 270.923 23.2443C267.248 23.2443 263.572 23.2443 259.897 23.2443C256.222 23.2443 252.547 23.2443 248.815 23.2443C245.111 23.2443 241.323 23.2443 237.619 23.2443C233.887 23.2443 230.212 23.2443 226.537 23.2443C222.861 23.2443 219.186 23.2443 215.511 23.2443C211.836 23.2443 208.16 23.2443 204.485 23.2443C200.81 23.2443 197.134 23.2443 193.459 23.2443C189.784 23.2443 186.108 23.2443 182.433 23.2443C178.758 23.2443 175.083 23.2443 171.407 23.2443C167.732 23.2443 164.057 23.2443 160.325 23.2443C156.621 23.2443 152.833 23.2443 149.129 23.2443C145.397 23.2443 141.722 23.2443 138.047 23.2443C134.372 23.2443 130.696 23.2443 127.021 23.2443C123.346 23.2443 119.67 23.2443 115.995 23.2443C112.32 23.2443 108.645 23.2443 104.969 23.2443C101.294 23.2443 97.6186 23.2443 93.9433 23.2443C90.268 23.2443 86.5927 23.2443 82.9174 23.2443C79.2421 23.2443 75.5669 23.2443 71.835 23.2443C68.1314 23.2443 64.3431 23.2443 60.6395 23.2443C56.9077 23.2443 53.2324 23.2443 49.5571 23.2443C45.8818 23.2443 42.2065 23.2443 38.5312 23.2443C34.8559 23.2443 31.1806 23.2443 29.3429 23.2443H27.5053V3.73275Z" fill="#594E40"/>
<path d="M291.457 5.44369C297.824 8.22987 303.086 11.4932 301.118 14.6108C299.15 17.7285 295.418 20.8461 292.76 23.9637C290.128 27.0814 288.595 30.199 287.444 33.3646C286.294 36.5062 285.528 39.7198 286.371 42.8614C287.24 46.027 289.694 49.1446 292.173 52.2623C294.652 55.3799 297.105 58.4976 295.955 61.6152C294.805 64.7328 290.051 67.8505 291.457 70.9681C292.863 74.0857 300.428 77.2034 302.779 80.321C305.13 83.4387 302.217 86.5563 302.089 89.6739C301.961 92.7916 304.619 95.9092 306.306 99.0269C308.018 102.145 308.785 105.262 305.284 108.428C301.808 111.569 294.038 114.783 290.588 117.925C287.138 121.09 288.007 124.208 287.956 127.325C287.904 130.443 286.984 133.561 290.716 136.678C294.473 139.796 302.907 142.914 302.447 146.031C294.211 155.248 280.416 152.905 280.416 153.39C280.416 150.272 280.416 130.443 280.416 127.325C280.416 124.208 280.416 121.09 280.416 117.925C280.416 114.783 280.416 111.569 280.416 108.428C280.416 105.262 280.416 102.145 280.416 99.0269C280.416 95.9092 280.416 92.7916 280.416 89.6739C280.416 86.5563 280.416 83.4387 280.416 80.321C280.416 77.2034 280.416 74.0857 280.416 70.9681C280.416 67.8505 280.416 64.7328 280.416 61.6152C280.416 58.4976 280.416 55.3799 280.416 52.2623C280.416 49.1446 280.416 46.027 280.416 42.8614C280.416 39.7198 280.416 36.5062 280.416 33.3646C280.416 30.199 280.416 27.0814 280.416 23.9637C280.416 20.8461 280.416 17.7285 280.416 14.6109C280.416 2.68735 277.898 3.49334 291.457 5.44369Z" fill="#594E40"/>
<path d="M292.955 171.232C299.323 168.446 304.584 165.183 302.616 162.065C300.648 158.947 296.917 155.83 294.259 152.712C288.432 145.878 281.915 146.249 281.915 152.712C281.915 155.83 281.915 158.947 281.915 162.065C281.915 173.989 279.396 173.183 292.955 171.232Z" fill="#594E40"/>
<path d="M21.9035 171.285C15.621 168.493 10.4298 165.222 12.3715 162.097C14.3132 158.973 17.9949 155.848 20.6175 152.723C26.3664 145.874 32.7973 146.246 32.7973 152.723C32.7973 155.848 32.7973 158.973 32.7973 162.097C32.7973 174.048 35.2819 173.24 21.9035 171.285Z" fill="#594E40"/>
<path d="M17.0849 151.533C12.0678 151.533 5.45626 145.483 7.42418 142.365C9.3921 139.248 13.1235 136.13 15.7815 133.013C18.4139 129.895 19.9473 126.777 21.0974 123.612C22.2475 120.47 23.0142 117.257 22.1708 114.115C21.3019 110.949 18.8483 107.832 16.3693 104.714C13.8902 101.596 11.4367 98.4787 12.5868 95.3611C13.7369 92.2435 18.4905 89.1258 17.0849 86.0082C15.6792 82.8905 8.11423 79.7729 5.76295 76.6553C3.41167 73.5376 6.32522 70.42 6.45301 67.3024C6.58079 64.1847 3.92282 61.0671 2.23604 57.9494C0.523691 54.8318 -0.243031 51.7141 3.25833 48.5485C6.73414 45.4069 14.5036 42.1933 17.9538 39.0517C21.4041 35.8861 20.5351 32.7685 20.5862 29.6508C20.6374 26.5332 21.5574 23.4156 17.826 20.2979C14.0691 17.1803 5.63516 14.0627 6.0952 10.945C6.45301 5.07217 28.1257 4.07132 28.1257 3.58618C28.1257 6.70383 28.1257 26.5332 28.1257 29.6508C28.1257 32.7685 28.1257 35.8861 28.1257 39.0517C28.1257 42.1933 28.1257 45.4069 28.1257 48.5485C28.1257 51.7141 28.1257 54.8318 28.1257 57.9494C28.1257 61.0671 28.1257 64.1847 28.1257 67.3024C28.1257 70.42 28.1257 73.5376 28.1257 76.6553C28.1257 79.7729 28.1257 82.8905 28.1257 86.0082C28.1257 89.1258 28.1257 92.2435 28.1257 95.3611C28.1257 98.4787 28.1257 101.596 28.1257 104.714C28.1257 107.832 28.1257 110.949 28.1257 114.115C28.1257 117.257 28.1257 120.47 28.1257 123.612C28.1257 126.777 28.1257 129.895 28.1257 133.013C28.1257 136.13 28.1257 139.248 28.1257 142.365C28.1257 154.289 30.6439 153.483 17.0849 151.533Z" fill="#594E40"/>
<path d="M27.5053 3.73275L29.3429 3.79778C31.1806 3.8845 34.8559 4.01458 38.5312 5.6839C42.2065 7.35323 45.8818 10.5184 49.5571 12.7731C53.2324 15.0061 56.9077 16.3069 60.6395 17.2824C64.3431 18.258 68.1314 18.9084 71.835 18.193C75.5669 17.4559 79.2421 15.3747 82.9174 13.2717C86.5927 11.1688 90.268 9.08759 93.9433 10.0632C97.6186 11.0387 101.294 15.0711 104.969 13.8788C108.645 12.6864 112.32 6.26925 115.995 4.27473C119.67 2.28022 123.346 4.75169 127.021 4.86008C130.696 4.96848 134.372 2.71381 138.047 1.28296C141.722 -0.169566 145.397 -0.819951 149.129 2.15014C152.833 5.09856 156.621 11.6891 160.325 14.6159C164.057 17.5426 167.732 16.8055 171.407 16.8489C175.083 16.8922 178.758 17.6727 182.433 14.5075C186.108 11.3206 189.784 4.16633 193.459 4.55657C197.134 4.96848 200.81 12.9032 204.485 14.4207C208.16 15.9383 211.836 11.0387 215.511 8.13369C219.186 5.25031 222.861 4.38313 226.537 6.91964C230.212 9.43446 233.887 15.3747 237.619 17.0006C241.323 18.6266 245.111 15.9383 248.815 14.6159C252.547 13.2717 256.222 13.2717 259.897 11.7975C263.572 10.3016 267.248 7.35322 270.923 5.85734C274.598 4.38313 278.274 4.38313 280.111 4.38313H281.949V23.2443H280.111C278.274 23.2443 274.598 23.2443 270.923 23.2443C267.248 23.2443 263.572 23.2443 259.897 23.2443C256.222 23.2443 252.547 23.2443 248.815 23.2443C245.111 23.2443 241.323 23.2443 237.619 23.2443C233.887 23.2443 230.212 23.2443 226.537 23.2443C222.861 23.2443 219.186 23.2443 215.511 23.2443C211.836 23.2443 208.16 23.2443 204.485 23.2443C200.81 23.2443 197.134 23.2443 193.459 23.2443C189.784 23.2443 186.108 23.2443 182.433 23.2443C178.758 23.2443 175.083 23.2443 171.407 23.2443C167.732 23.2443 164.057 23.2443 160.325 23.2443C156.621 23.2443 152.833 23.2443 149.129 23.2443C145.397 23.2443 141.722 23.2443 138.047 23.2443C134.372 23.2443 130.696 23.2443 127.021 23.2443C123.346 23.2443 119.67 23.2443 115.995 23.2443C112.32 23.2443 108.645 23.2443 104.969 23.2443C101.294 23.2443 97.6186 23.2443 93.9433 23.2443C90.268 23.2443 86.5927 23.2443 82.9174 23.2443C79.2421 23.2443 75.5669 23.2443 71.835 23.2443C68.1314 23.2443 64.3431 23.2443 60.6395 23.2443C56.9077 23.2443 53.2324 23.2443 49.5571 23.2443C45.8818 23.2443 42.2065 23.2443 38.5312 23.2443C34.8559 23.2443 31.1806 23.2443 29.3429 23.2443H27.5053V3.73275Z" fill="#594E40"/>
<path d="M282.825 172.252L280.987 172.187C279.15 172.1 275.474 171.97 271.799 170.3C268.124 168.631 264.448 165.466 260.773 163.211C257.098 160.978 253.422 159.677 249.691 158.702C245.987 157.726 242.199 157.076 238.495 157.791C234.763 158.528 231.088 160.61 227.413 162.713C223.737 164.815 220.062 166.897 216.387 165.921C212.711 164.946 209.036 160.913 205.361 162.106C201.686 163.298 198.01 169.715 194.335 171.71C190.66 173.704 186.984 171.233 183.309 171.124C179.634 171.016 175.959 173.27 172.283 174.701C168.608 176.154 164.933 176.804 161.201 173.834C157.497 170.886 153.709 164.295 150.005 161.368C146.273 158.442 142.598 159.179 138.923 159.135C135.248 159.092 131.572 158.312 127.897 161.477C124.222 164.664 120.546 171.818 116.871 171.428C113.196 171.016 109.52 163.081 105.845 161.564C102.17 160.046 98.4946 164.946 94.8193 167.851C91.144 170.734 87.4687 171.601 83.7934 169.065C80.1181 166.55 76.4428 160.61 72.7109 158.984C69.0074 157.358 65.219 160.046 61.5154 161.368C57.7836 162.713 54.1083 162.713 50.433 164.187C46.7577 165.683 43.0824 168.631 39.4071 170.127C35.7318 171.601 26.7389 176.346 23.7828 170.3C20.8267 164.255 23.7828 152.74 23.7828 152.74C28.8191 150.604 35.7318 152.74 39.4071 152.74C43.0824 152.74 46.7577 152.74 50.433 152.74C54.1083 152.74 57.7836 152.74 61.5154 152.74C65.219 152.74 69.0074 152.74 72.7109 152.74C76.4428 152.74 80.1181 152.74 83.7934 152.74C87.4687 152.74 91.144 152.74 94.8193 152.74C98.4946 152.74 102.17 152.74 105.845 152.74C109.52 152.74 113.196 152.74 116.871 152.74C120.546 152.74 124.222 152.74 127.897 152.74C131.572 152.74 135.248 152.74 138.923 152.74C142.598 152.74 146.273 152.74 150.005 152.74C153.709 152.74 157.497 152.74 161.201 152.74C164.933 152.74 168.608 152.74 172.283 152.74C175.959 152.74 179.634 152.74 183.309 152.74C186.984 152.74 190.66 152.74 194.335 152.74C198.01 152.74 201.686 152.74 205.361 152.74C209.036 152.74 212.711 152.74 216.387 152.74C220.062 152.74 223.737 152.74 227.413 152.74C231.088 152.74 234.763 152.74 238.495 152.74C242.199 152.74 245.987 152.74 249.691 152.74C253.422 152.74 257.098 152.74 260.773 152.74C264.448 152.74 268.124 152.74 271.799 152.74C275.474 152.74 279.15 152.74 280.987 152.74H282.825V172.252Z" fill="#594E40"/>
<defs>
<clipPath id="clip0_11_94">
<rect width="254.444" height="130.022" fill="white" transform="translate(27.5053 23.2753)"/>
</clipPath>
</defs>
</svg>
