<svg width="1563" height="518" viewBox="0 0 1563 518" fill="none" xmlns="http://www.w3.org/2000/svg">
<path d="M591.341 513.089C583.189 518.002 575.084 518.35 566.97 515.752C558.83 513.145 550.677 507.57 542.49 500.624C534.306 493.678 526.134 485.404 517.932 477.421C509.997 469.699 502.037 462.252 494.056 456.611L493.283 456.071L493.281 456.07C476.777 444.749 460.315 441.337 443.889 440.85C435.682 440.607 427.48 441.094 419.292 441.688C411.098 442.283 402.924 442.985 394.738 443.178L394.739 443.179C362.529 443.75 330.473 436.259 297.896 422.72L296.344 422.071H296.343C288.107 418.632 279.849 414.792 271.568 410.968C263.29 407.146 254.99 403.341 246.688 399.977C230.606 393.462 214.475 388.587 198.399 388.466L196.843 388.47C180.176 388.665 163.655 393.93 147.269 399.042C130.851 404.162 114.568 409.13 98.2579 408.84C81.9571 408.551 65.6723 402.91 51.3829 395.965C37.0997 389.024 24.8471 380.8 16.5968 375.365V375.364L0.500122 364.456V-1.43988H1529.55C1529.55 -1.43534 1529.55 -1.43082 1529.55 -1.42621C1529.58 -1.1263 1529.63 -0.682344 1529.67 -0.112732C1529.77 1.02654 1529.87 2.67157 1529.93 4.69C1530.05 8.72881 1529.97 14.2562 1529.19 20.2154C1527.66 31.9797 1523.42 45.278 1512.75 52.2486L1512.24 52.5757C1494.78 63.4365 1483.16 82.644 1474.88 106.139C1466.6 129.64 1461.64 157.503 1457.55 185.757C1453.46 214.033 1450.25 242.684 1445.47 267.845C1440.77 292.621 1434.57 313.908 1424.57 328.039L1424.1 328.706L1424.09 328.707C1415.78 340.196 1410.99 355.771 1407.95 372.946C1404.91 390.126 1403.6 408.969 1402.3 427.019C1401 445.085 1399.7 462.347 1396.67 476.424C1393.63 490.526 1388.89 501.284 1380.83 506.503L1380.83 506.502C1372.7 511.734 1364.62 511.67 1356.51 508.312C1348.37 504.94 1340.21 498.25 1332.02 490.244C1323.82 482.232 1315.66 472.985 1307.44 464.48C1299.5 456.264 1291.53 448.763 1283.53 443.903L1282.75 443.44L1282.75 443.439C1266.19 433.841 1249.66 435.907 1233.33 437.287C1216.98 438.668 1200.79 439.374 1184.55 427.368C1176.4 421.349 1168.25 412.12 1160.07 401.16C1151.89 390.203 1143.71 377.548 1135.5 364.694C1119.37 339.419 1103.14 313.339 1086.77 298.135L1085.99 297.419C1069.38 282.282 1052.64 278.594 1035.9 282.072C1019.2 285.54 1002.54 296.128 986.038 309.427L986.037 309.426C977.738 316.03 969.468 323.341 961.241 330.4C953.008 337.465 944.812 344.282 936.633 349.928C920.258 361.233 904.076 367.756 887.908 362.306C879.802 359.574 871.672 353.843 863.506 346.461C855.343 339.083 847.179 330.088 838.998 320.86C830.824 311.64 822.632 302.185 814.434 293.924C806.237 285.665 798.005 278.568 789.739 274.071C781.462 269.568 773.174 267.698 764.875 268.377C756.58 269.055 748.307 272.277 740.05 277.904C724.065 288.797 708.087 308.741 692.02 336.893L690.464 339.643V339.644C673.966 369.24 657.362 407.654 640.802 441.104C632.515 457.843 624.236 473.347 615.974 485.922C607.705 498.508 599.488 508.105 591.341 513.089Z" fill="#594E40" stroke="black"/>
</svg>
