<svg width="435" height="404" viewBox="0 0 435 404" fill="none" xmlns="http://www.w3.org/2000/svg">
<path d="M424.03 1L427.385 8.87697C430.42 16.0018 432.375 23.5396 433.185 31.2414L433.359 32.8983C433.785 36.9513 433.806 41.0368 433.42 45.0939L433.111 48.3427C432.357 56.2648 429.655 63.8773 425.245 70.5013V70.5013C422.873 74.0637 420.038 77.2945 416.813 80.1085L406.795 88.852C401.646 93.3456 396.05 97.2996 390.095 100.652L367.653 113.285C359.185 118.052 350.067 121.559 340.587 123.695L288.314 135.477C283.671 136.523 278.959 137.237 274.214 137.612L224.844 141.518L168.025 145.709L98.4491 151.855L49.4489 155.938C43.4 156.442 37.4314 157.656 31.6658 159.554L15.923 164.736C11.9214 166.053 8.38951 168.506 5.75778 171.795L5.40201 172.24C2.55245 175.802 1 180.227 1 184.789V184.789C1 186.54 1.22898 188.283 1.68111 189.975L3.78732 197.856L6.66603 206.429C8.73249 212.583 11.8848 218.318 15.9736 223.36V223.36C17.6386 225.413 19.4511 227.342 21.3968 229.132L27.2932 234.555C29.9118 236.963 32.7731 239.094 35.831 240.912L37.186 241.718C42.4496 244.848 48.3085 246.846 54.388 247.582V247.582H66.2877L74.9713 246.465L83.4405 244.23L89.9675 241.638C90.6164 241.381 91.2295 241.041 91.7921 240.627L93.4463 239.412C94.5022 238.636 95.1258 237.403 95.1258 236.093V236.093C95.1258 235.095 94.7637 234.132 94.1068 233.381L93.768 232.994C93.3192 232.481 92.7787 232.056 92.1742 231.741L91.4808 231.379L89.9635 230.837C89.7615 230.765 89.5487 230.728 89.3343 230.728H89.1022C88.7065 230.728 88.3304 230.9 88.0719 231.199L87.913 231.383C87.6691 231.666 87.6082 232.063 87.7561 232.405V232.405C87.8087 232.527 87.8358 232.658 87.8358 232.791V233.563C87.8358 233.845 87.8105 234.127 87.76 234.404L87.5705 235.447C87.5332 235.652 87.4651 235.85 87.3684 236.035L87.0663 236.612C87.0098 236.72 86.9133 236.802 86.7975 236.839V236.839C86.4779 236.943 86.1565 236.686 86.1886 236.351L86.2985 235.205C86.3223 234.957 86.4208 234.723 86.5811 234.533L87.5142 233.428L88.9079 231.566L90.9448 229.331L92.2174 227.673C92.3654 227.48 92.4457 227.243 92.4457 227V227C92.4457 226.464 92.0595 226.004 91.5305 225.913L91.0226 225.824C90.5619 225.744 90.0886 225.856 89.7119 226.133L88.9079 226.723V226.723C88.5364 227.046 87.9585 226.914 87.7635 226.463L87.5697 226.014C87.3539 225.514 87.542 224.932 88.0095 224.653L88.5537 224.328C88.7868 224.188 89.0483 224.103 89.3187 224.079L91.0472 223.924C91.6702 223.868 92.2911 224.051 92.7838 224.436V224.436C92.9859 224.594 93.1621 224.783 93.306 224.995L93.404 225.14C93.8918 225.86 94.1 226.734 93.9896 227.597L93.9346 228.027C93.8715 228.521 93.7308 229.001 93.5177 229.451L93.3616 229.78C93.1801 230.163 92.9644 230.528 92.7171 230.872L91.4808 232.59L90.6931 233.616C90.2194 234.234 89.6739 234.792 89.0682 235.281L88.512 235.73C88.4901 235.747 88.4669 235.763 88.4425 235.777V235.777C88.0555 236.001 87.5774 235.693 87.6226 235.248L88.1195 230.356C88.1447 230.108 88.1395 229.858 88.104 229.611L87.8571 227.895C87.843 227.797 87.8165 227.701 87.7782 227.61V227.61C87.4265 226.77 86.2922 226.636 85.7539 227.37L85.6394 227.527C85.5326 227.672 85.3961 227.794 85.2389 227.883L83.4191 228.917C82.9337 229.192 82.4282 229.431 81.9068 229.63L80.0099 230.355L73.6848 232.124L71.9623 232.424C69.8983 232.782 67.8073 232.962 65.7124 232.962H62.9552C61.822 232.962 60.693 232.824 59.5931 232.552L57.4553 232.021C56.9879 231.905 56.5496 231.693 56.1684 231.399L55.6873 231.027C55.1383 230.603 54.8168 229.949 54.8168 229.255V229.255C54.8168 228.704 55.02 228.173 55.3876 227.762L55.9039 227.185C56.1783 226.879 56.4956 226.614 56.8459 226.398L57.812 225.804C58.5291 225.363 59.2904 224.998 60.0835 224.715L63.0716 223.65L65.193 222.695C65.7074 222.463 66.2409 222.277 66.7876 222.137V222.137C67.4531 221.967 68.0987 221.727 68.7139 221.422L70.0399 220.764L71.1969 220.235C71.7703 219.973 72.2521 219.545 72.5803 219.006V219.006C72.882 218.511 73.0416 217.943 73.0416 217.363V216.784C73.0416 216.398 72.9742 216.015 72.8423 215.653V215.653C72.5569 214.868 71.9855 214.22 71.2424 213.838L70.8261 213.625C70.3069 213.358 69.7408 213.195 69.1594 213.145L68.2863 213.069C68.0292 213.046 67.7703 213.081 67.5284 213.172L66.86 213.42C66.5804 213.524 66.3949 213.791 66.3949 214.09V214.126C66.3949 214.501 66.6983 214.804 67.0726 214.804V214.804C67.1209 214.804 67.1692 214.799 67.2164 214.789L67.8317 214.655C68.4796 214.514 69.0237 214.077 69.301 213.475V213.475C69.5652 212.902 69.5586 212.24 69.2832 211.672L69.191 211.482C68.9754 211.037 68.6354 210.664 68.2123 210.408L67.2624 209.834C66.6878 209.487 66.0613 209.234 65.4068 209.084L64.358 208.844L62.1898 208.455C61.5648 208.342 60.9549 208.158 60.3724 207.905L59.5207 207.535C59.1046 207.354 58.7277 207.094 58.4112 206.769L58.2336 206.587C57.8923 206.237 57.6566 205.797 57.5534 205.319V205.319C57.4466 204.824 57.4863 204.309 57.6676 203.837L57.7113 203.723L58.0558 202.945C58.167 202.694 58.0843 202.399 57.8588 202.242V202.242C57.7628 202.175 57.6487 202.14 57.5317 202.14H57.4476C57.1465 202.14 56.8683 202.301 56.7181 202.561L56.6676 202.649C56.5788 202.803 56.5321 202.978 56.5321 203.156V203.723V203.992C56.5321 204.363 56.6408 204.726 56.8448 205.036V205.036C56.922 205.153 57.0118 205.262 57.1128 205.359L58.6853 206.877C59.4629 207.627 60.3229 208.287 61.2491 208.844V208.844L63.7148 209.962L65.4301 210.8L66.1288 211.103C66.5196 211.273 66.8919 211.482 67.24 211.728L67.9051 212.197C68.2515 212.442 68.5369 212.763 68.7389 213.136L68.9243 213.478C69.1579 213.909 69.2084 214.416 69.0645 214.885V214.885C68.9332 215.313 68.6494 215.677 68.267 215.91L67.7886 216.201L67.1158 216.56C66.6425 216.813 66.1141 216.946 65.5774 216.946H64.7418C64.4943 216.946 64.2551 216.856 64.0683 216.694V216.694C63.8437 216.499 63.7148 216.216 63.7148 215.919V215.712C63.7148 215.367 63.8391 215.033 64.0649 214.771V214.771C64.2558 214.55 64.5093 214.392 64.7919 214.318L65.1174 214.234C65.325 214.18 65.5386 214.152 65.7531 214.152H67.1453H69.2005C70.0287 214.152 70.8397 214.389 71.5383 214.834L71.5741 214.856C71.9074 215.069 72.208 215.328 72.4662 215.628L72.6575 215.849C73.1153 216.379 73.3866 217.052 73.429 217.752V217.752C73.4561 218.199 73.3872 218.652 73.2265 219.071V219.071C73.104 219.39 72.9304 219.687 72.7123 219.95L71.8717 220.965C71.3666 221.574 70.7981 222.128 70.1758 222.617L68.8606 223.65L65.9661 225.606L64.8029 226.414C64.5072 226.62 64.2349 226.857 63.991 227.122L63.2631 227.912C63.1378 228.048 63.0515 228.216 63.0136 228.397V228.397C62.9207 228.841 63.13 229.293 63.5283 229.509L63.7148 229.61V229.61C64.6298 230.099 65.6512 230.355 66.6887 230.355H67.1304C67.8518 230.355 68.5699 230.258 69.2656 230.068L70.2543 229.796L72.5191 229.322C73.0809 229.204 73.6323 229.041 74.1678 228.834L75.1019 228.473C75.2288 228.424 75.3498 228.361 75.4626 228.285L75.8138 228.048C76.0914 227.86 76.2577 227.547 76.2577 227.212V227.212C76.2577 226.903 76.1164 226.612 75.8743 226.421L75.3062 225.972C75.1549 225.853 74.9903 225.751 74.8156 225.669L74.674 225.603C74.0273 225.301 73.3092 225.184 72.6 225.266L72.4423 225.284C72.199 225.312 71.9585 225.361 71.7233 225.429L71.1119 225.606L69.9542 226.07C69.8021 226.131 69.6771 226.245 69.6025 226.391L69.5455 226.502C69.4046 226.778 69.5159 227.115 69.793 227.253V227.253C69.9485 227.33 70.1312 227.33 70.2868 227.253L70.3735 227.21C70.6288 227.083 70.7903 226.823 70.7903 226.537V226.433C70.7903 226.258 70.7401 226.086 70.6456 225.938L70.5881 225.849C70.3772 225.519 70.0273 225.303 69.6378 225.264L68.939 225.192C68.6038 225.158 68.265 225.186 67.9399 225.275L64.6796 226.165L62.5355 227.003L61.4231 227.41C60.8097 227.634 60.2303 227.942 59.7012 228.325L58.9425 228.874C58.6958 229.053 58.4864 229.278 58.326 229.536L58.1125 229.881C57.9242 230.185 57.8635 230.551 57.9437 230.899V230.899C58.002 231.152 58.1316 231.383 58.3172 231.564L58.4496 231.694C58.7368 231.974 59.1023 232.161 59.498 232.23L60.149 232.343C60.3817 232.383 60.6174 232.404 60.8535 232.404H62.8571H65.4301H67.8958L70.4687 232.124L70.9418 232.073C72.3394 231.921 73.7227 231.658 75.0785 231.286V231.286L78.2946 230.355L81.8324 228.865L84.2446 227.668C84.6137 227.485 84.8692 227.132 84.9279 226.724V226.724C85.0008 226.217 84.7583 225.717 84.3154 225.461L83.9589 225.254C83.8282 225.179 83.6887 225.119 83.5436 225.077L82.6355 224.814C82.1011 224.659 81.5543 224.551 81.0012 224.491L79.2595 224.302H73.2267C73.1035 224.302 72.9804 224.311 72.8584 224.329L71.2989 224.555C70.8322 224.622 70.3934 224.315 70.2968 223.854V223.854C70.2688 223.72 70.2719 223.582 70.3057 223.449L70.3163 223.408C70.4107 223.039 70.6934 222.747 71.0594 222.641L72.0767 222.347V222.347C73.1435 222.038 74.2484 221.881 75.3589 221.881H76.2577H79.2595H80.0585C81.7675 221.881 83.4313 222.43 84.8044 223.448V223.448C85.8106 224.193 86.6271 225.165 87.1876 226.285L87.413 226.735C88.1141 228.136 88.4791 229.684 88.4791 231.25V231.25C88.4791 232.684 88.174 234.104 87.584 235.411L87.1353 236.404C86.6056 237.578 85.8814 238.653 84.9933 239.585V239.585C84.1774 240.442 83.2336 241.166 82.1955 241.733L80.0099 242.926L79.7913 243.012C77.7324 243.82 75.5671 244.324 73.3632 244.509V244.509L68.4787 244.29C67.5924 244.25 66.713 244.114 65.8559 243.885V243.885C64.8612 243.62 63.9039 243.23 63.0064 242.725L62.5355 242.461L61.4212 241.803C60.3846 241.19 59.4571 240.41 58.6769 239.493V239.493C58.2485 238.989 57.867 238.448 57.5372 237.875L56.3385 235.792C56.3246 235.768 56.3134 235.743 56.305 235.716L55.8535 234.287C55.7537 233.972 55.2824 234.081 55.332 234.408V234.408C55.3451 234.494 55.3156 234.581 55.253 234.642L54.5723 235.299C54.4499 235.417 54.3135 235.52 54.1663 235.605L52.1367 236.78L51.1875 237.193C50.5376 237.475 49.9348 237.855 49.4 238.319L49.163 238.525C48.6488 238.972 48.225 239.513 47.9148 240.12L47.8034 240.337C47.6202 240.695 47.4951 241.08 47.4327 241.477L47.3686 241.886C47.2635 242.555 47.4116 243.24 47.7841 243.806V243.806C47.9684 244.086 48.2027 244.33 48.4754 244.525L49.3171 245.127C49.6953 245.398 50.0955 245.636 50.5136 245.839L51.0303 246.091C52.0505 246.587 53.1234 246.967 54.2286 247.223L57.3897 247.955L61.2491 248.327H66.6093L70.4687 247.955L75.2929 247.303L80.0099 246.186V246.186C81.7918 245.752 83.5241 245.135 85.1788 244.345L86.9782 243.485L92.3855 240.26C93.5467 239.568 94.4953 238.569 95.1275 237.374L95.629 236.426C95.8618 235.986 95.9834 235.496 95.9834 234.998V234.998C95.9834 234.013 95.5079 233.088 94.7064 232.515L94.2092 232.159C94.1773 232.136 94.1414 232.119 94.1035 232.109V232.109C93.7972 232.03 93.5725 232.394 93.7817 232.632L94.3943 233.328C94.4524 233.394 94.4954 233.472 94.5204 233.556L94.7991 234.5C95.2719 236.102 94.9241 237.834 93.8696 239.129L93.2143 239.934C92.7057 240.558 92.3082 241.266 92.0392 242.025L92.0168 242.088L91.8343 242.659C91.6055 243.375 91.6275 244.147 91.8966 244.848V244.848C91.9765 245.056 92.0774 245.256 92.1977 245.444L92.3221 245.638C92.8252 246.425 93.5179 247.073 94.3366 247.522L95.1258 247.955L95.319 248.033C96.2429 248.408 97.2547 248.51 98.2347 248.327V248.327L98.9555 248.119C99.3118 248.015 99.5992 247.751 99.7321 247.405L99.8137 247.193C99.8992 246.97 99.8721 246.719 99.7409 246.52V246.52C99.6037 246.311 99.3709 246.186 99.1214 246.186H98.3991C98.0113 246.186 97.6313 246.077 97.3018 245.873L95.8412 244.967C95.6505 244.848 95.4498 244.747 95.2416 244.663L94.2326 244.259C94.1859 244.24 94.1457 244.208 94.117 244.167V244.167C93.9996 243.996 94.1213 243.764 94.328 243.764H94.4825H95.2545C95.7373 243.764 96.2169 243.842 96.6747 243.995L96.8665 244.059C97.2046 244.172 97.5219 244.34 97.8057 244.556L98.7482 245.272C98.965 245.437 99.0923 245.694 99.0923 245.966V245.966C99.0923 246.447 98.7022 246.837 98.2209 246.837H98.0874C97.9033 246.837 97.7227 246.787 97.5653 246.691L96.9826 246.337C96.8171 246.236 96.6603 246.122 96.514 245.995L95.7736 245.351C95.6287 245.226 95.4627 245.127 95.2832 245.059L93.96 244.559C93.539 244.4 93.0889 244.711 93.0889 245.161V245.161V246.186V246.611C93.0889 247.177 93.2975 247.722 93.6747 248.144V248.144C93.7841 248.266 93.9063 248.376 94.0392 248.472L94.1588 248.559C94.374 248.714 94.6055 248.846 94.8491 248.952L95.2258 249.116C95.4446 249.211 95.6713 249.286 95.9034 249.341V249.341C96.451 249.471 97.0196 249.485 97.5728 249.382L97.8257 249.335C98.0967 249.284 98.3581 249.192 98.6004 249.06V249.06C98.9247 248.884 99.2085 248.642 99.4332 248.349L99.4746 248.295C99.6477 248.069 99.7873 247.82 99.8891 247.555L99.95 247.396L100.019 247.217C100.11 246.979 100.312 246.801 100.559 246.74V246.74C100.784 246.684 100.973 246.53 101.074 246.32L101.222 246.01C101.37 245.702 101.409 245.352 101.332 245.019L101.285 244.814C101.253 244.673 101.206 244.536 101.146 244.405L100.81 243.676C100.667 243.366 100.593 243.029 100.593 242.688V242.441C100.593 242.033 100.74 241.639 101.006 241.331V241.331C101.158 241.155 101.344 241.012 101.554 240.911L102.04 240.676C102.146 240.625 102.263 240.598 102.381 240.598V240.598C102.815 240.598 103.166 240.95 103.166 241.384V241.62C103.166 241.745 103.143 241.869 103.098 241.986L103.015 242.203C102.973 242.312 102.952 242.427 102.952 242.544V242.544C102.952 242.942 103.199 243.298 103.572 243.437L103.587 243.442C103.663 243.471 103.736 243.509 103.803 243.555L103.836 243.578C104.095 243.758 104.28 244.026 104.355 244.333L104.495 244.9C104.537 245.069 104.518 245.247 104.441 245.402V245.402C104.317 245.654 104.061 245.813 103.78 245.813H103.702H102.222C102.208 245.813 102.195 245.809 102.184 245.802V245.802C102.117 245.758 102.041 245.845 102.093 245.905L102.39 246.249C102.407 246.268 102.429 246.283 102.454 246.29L103.068 246.468C103.275 246.528 103.49 246.558 103.705 246.558H104.094C104.19 246.558 104.286 246.551 104.381 246.537V246.537C104.709 246.49 105.021 246.361 105.287 246.163L105.43 246.057C105.564 245.957 105.687 245.842 105.797 245.715V245.715C106.108 245.355 106.299 244.907 106.345 244.433L106.382 244.044V244.044C106.382 243.492 106.258 242.947 106.02 242.45L105.979 242.366C105.891 242.181 105.783 242.006 105.659 241.844V241.844C105.499 241.635 105.311 241.449 105.102 241.29L104.695 240.981C104.606 240.913 104.505 240.86 104.398 240.825L104.053 240.713C103.844 240.645 103.702 240.449 103.702 240.229V240.229C103.702 240.107 103.746 239.989 103.826 239.896L103.924 239.783C103.99 239.706 104.069 239.641 104.156 239.59L104.396 239.452C104.784 239.227 105.225 239.108 105.674 239.108H106.013C106.188 239.108 106.362 239.121 106.534 239.146L106.579 239.152C106.805 239.185 107.026 239.242 107.239 239.321V239.321C107.524 239.427 107.792 239.573 108.036 239.755L108.239 239.906C108.359 239.995 108.468 240.097 108.566 240.209V240.209C108.886 240.58 109.062 241.054 109.062 241.545V242.088V242.184C109.062 242.419 108.96 242.642 108.783 242.797V242.797C108.559 242.991 108.246 243.048 107.968 242.944L107.869 242.908C107.737 242.859 107.617 242.782 107.517 242.683L106.918 242.088L106.67 241.764C106.411 241.427 106.07 241.161 105.68 240.992L105.226 240.795C105.211 240.788 105.194 240.785 105.178 240.785V240.785C105.07 240.785 105.016 240.916 105.093 240.992L105.739 241.623L106.597 242.368L107.432 242.932C107.518 242.99 107.612 243.034 107.711 243.063V243.063C108.021 243.152 108.354 243.086 108.606 242.884L109.598 242.088L113.243 239.667L113.736 239.43C117.396 237.671 121.261 236.377 125.242 235.579V235.579C128.668 234.892 132.158 234.577 135.652 234.639L138.096 234.682C143.452 234.777 148.78 235.476 153.979 236.766L155.16 237.06L171.661 242.617C178.135 244.798 184.291 247.953 189.85 251.923V251.923C201.205 260.034 209.907 271.467 214.646 284.592L216.133 288.712C217.853 293.476 218.733 298.502 218.733 303.566V303.566C218.733 319.174 210.417 333.599 196.911 341.42L193.285 343.52C185.516 348.018 176.699 350.387 167.722 350.387H152.408C143.999 350.387 135.781 347.883 128.8 343.194V343.194C125.239 340.802 121.335 338.965 117.222 337.746L103.731 333.748C92.7157 330.484 81.0887 329.843 69.7813 331.879L62.2803 333.229C57.0768 334.166 52.1283 336.185 47.7555 339.157L45.5983 340.623C36.6115 346.731 31.2317 356.892 31.2317 367.757V368.158C31.2317 370.703 31.5588 373.237 32.2049 375.699V375.699C34.5635 384.685 40.9905 392.051 49.5746 395.604L53.6034 397.272C57.1089 398.724 60.8097 399.649 64.5858 400.018L95.1258 403H122.463H149.8" stroke="black"/>
</svg>
